<svg id="svg" version="1.1" viewBox="0 0 300 300" width="300" height="300" xmlns="http://www.w3.org/2000/svg"><svg xmlns="http://www.w3.org/2000/svg"><defs><clipPath id="clip-1"><rect x="0" y="0" transform="scale(0.14648,0.14648)" width="2048" height="2048" fill="none"/></clipPath><linearGradient x1="225.47754" y1="45.17534" x2="233.94727" y2="81.68408" gradientUnits="userSpaceOnUse" id="color-1"><stop offset="0" stop-color="#ededec" stop-opacity="0.93333"/><stop offset="1" stop-color="#ffffff"/></linearGradient></defs><g clip-path="url(#clip-1)" fill="none" fill-rule="nonzero" stroke="none" stroke-width="1" stroke-linecap="butt" stroke-linejoin="miter" stroke-miterlimit="10" stroke-dasharray="" stroke-dashoffset="0" font-family="none" font-weight="none" font-size="none" text-anchor="none" style="mix-blend-mode: normal"><path d="M133.24468,161.58252c7.09541,-0.1333 14.51265,0.11719 21.65229,-0.00439c2.14307,-0.03662 10.47217,-0.13037 12.22705,0.17725c0.89795,0.98438 0.56836,5.70264 0.5918,7.38721c2.33789,0.32227 4.229,0.06445 6.39404,0.20654c2.47998,0.1626 4.70508,0.25781 7.18066,0.37061c0.11133,2.14746 0.05273,4.46924 0.03516,6.63428c1.58057,0.25635 5.33643,0.1626 7.05908,0.16113l-0.00293,7.16016c1.44287,-0.00879 5.77148,-0.15967 6.84961,0.24463c0.31348,0.82324 0.19922,7.17041 0.19775,8.6001l-0.00146,17.5708c0.00146,2.82422 -0.10986,6.86426 0.07324,9.56836c-2.04785,0.26074 -4.91602,0.18018 -7.05176,0.18164c-0.0542,1.90723 -0.15967,5.17969 0.0249,6.99463c-1.84277,0.26367 -5.02734,0.17139 -7.01074,0.16553c-0.06006,1.87939 0.14063,5.44629 -0.40137,7.03418c-0.71777,0.52002 -4.9585,0.04395 -5.90918,0.23291c-1.76074,0.34863 0.37793,5.2251 -0.82178,6.9375c-0.95654,0.54199 -4.9292,0.31201 -6.27686,0.30029c-4.58643,0.00732 -10.95557,0.19043 -15.46289,-0.11133c-0.09082,-0.17432 -0.31641,-0.63721 -0.53467,-0.63281c-1.3374,0.03223 -2.9209,0.03955 -4.229,0.04248l-13.63521,0.00439c-1.37637,0 -6.94014,0.25342 -7.82021,-0.32227c-0.55737,-1.18945 -0.14604,-5.24561 -0.08335,-6.80566c-1.97637,-0.19775 -4.70303,-0.12158 -6.77021,-0.15088c-0.06841,-2.28516 -0.03428,-4.7417 -0.04307,-7.04004c-1.81392,-0.24756 -5.0001,-0.1582 -6.95244,-0.15088c-0.08481,-2.27197 -0.02153,-4.90576 -0.02095,-7.2041c-2.33423,-0.08936 -4.66963,-0.14502 -7.00547,-0.16553c-0.03354,-1.44287 -0.02534,-2.92383 -0.01201,-4.36963c0.09712,-10.46631 -0.20537,-21.00586 0.14692,-31.46045c1.68545,-0.12158 5.19141,-0.16113 6.83071,-0.09814c-0.03911,-2.33203 0.03032,-4.8208 0.06943,-7.15723c1.94282,-0.1626 4.927,-0.07178 6.94995,-0.06592c0.00205,-2.28516 0.01655,-4.56885 0.04351,-6.85254c4.20835,-0.31201 9.24595,-0.4292 13.46851,-0.48779c0.06006,-1.26855 -0.20815,-6.20068 0.25093,-6.89502zM119.52275,183.41016c-2.20356,-0.00146 -4.52505,0.03516 -6.7188,-0.01318l0.00952,23.0625c-0.00015,3.91553 0.12026,8.5752 -0.04687,12.39551c2.31299,0.19629 4.46953,0.08789 6.74766,0.1582l0.01187,6.85986c1.35586,-0.00732 5.62646,-0.27393 6.55518,0.32813c0.59868,0.82324 0.36416,5.3833 0.47769,7.00049c2.96279,-0.12744 6.03252,-0.05566 9.00659,-0.04687l13.92759,0.01025l10.29639,-0.00146c1.83691,-0.00146 6.271,-0.3208 7.72266,0.61523c2.31885,0.03516 4.5249,-0.12891 6.81299,-0.12744c-0.01172,-2.31299 0.12744,-4.43848 0.1582,-6.71045c0.32666,0.01172 0.80127,0.07471 1.0708,-0.03369l-0.27979,-0.07178c2.00684,-0.20215 3.98584,-0.20361 6,-0.23584c0.12744,-2.30566 0.04248,-4.60254 0.08057,-6.90674c2.19141,-0.01904 4.38428,-0.02197 6.57715,-0.00586c0.02344,-11.56787 0.23877,-24.03516 -0.01611,-35.53857l-6.5625,0.00146c-0.00879,-2.24707 0.06299,-5.10791 -0.05273,-7.30371c-4.14111,0.18604 -9.66211,0.06152 -13.83984,-0.07031c-0.20361,-2.37305 -0.1626,-4.76514 -0.09229,-7.14404c-4.32129,-0.0249 -10.61133,0.18457 -14.69531,-0.06592c-0.16113,-0.1875 -0.30322,-0.34863 -0.47461,-0.52734c-2.5459,-0.13037 -5.82305,-0.04687 -8.41157,-0.04102c-3.33779,0.00586 -6.98159,-0.07471 -10.29741,0.03076c0.00308,1.18799 0.19058,6.14795 -0.22705,6.9126c-1.30151,0.47021 -11.96895,0.38818 -13.74082,0.24756z" fill="#fdfdfd"/><path d="M160.38574,190.34619c1.45898,0.03955 4.57178,-0.26953 5.87402,0.25342c0.03076,0.01318 0.42334,0.3457 0.59473,0.35303c2.40967,0.10107 5.4375,0.05566 7.79883,0.05127c0.01758,2.26318 0.01611,4.5249 -0.00293,6.78662c1.88965,0.15967 4.66113,0.10107 6.61963,0.11426c0.27686,3.6167 0.14063,11.23975 -0.00439,14.91943c-1.69336,0.03516 -3.43213,-0.0249 -5.12842,0.00586c-0.77051,0.01318 -1.0957,-0.09375 -1.56592,0.38525c-0.48779,1.89258 -0.29443,4.52051 0.16846,6.42188c-1.82959,0.29004 -12.45703,0.33105 -14.28662,0.00439c-0.27539,-2.2998 -0.1377,-8.60156 -0.1084,-11.21484c0.06445,-5.82568 -0.17871,-12.3208 0.04102,-18.08057z" fill="#fdfdfd"/><path d="M128.94214,190.35352c3.18296,-0.01172 8.1022,-0.1582 11.10337,0.14063l-0.0082,18.56396c-0.00073,2.2002 -0.25474,8.23975 0.39756,9.91113c-3.13242,0.15527 -6.26997,0.18018 -9.40459,0.07617c-1.4269,-0.104 -3.43813,-0.05566 -4.95396,-0.11426l0.0394,-0.19629c0.26235,-1.36377 0.8937,-6.1875 -0.68232,-6.47754c-1.23984,-0.22705 -4.50996,-0.11865 -5.9269,-0.11865l-0.00205,-14.97217l6.48398,-0.00586c0.00923,-2.21484 0.05977,-4.42822 0.1519,-6.64014c0.90923,-0.07471 1.88555,-0.11426 2.80181,-0.16699z" fill="#fdfdfd"/><path d="M84.83643,125.70659c3.48853,-0.12173 7.46763,-0.03721 10.98911,-0.03779l16.94063,0.02197c0.05083,0.95054 0.09814,5.59087 0.04556,6.31802c-0.16772,2.3209 0.31597,22.021 -0.2001,22.70068c-1.30913,0.23291 -7.0062,0.13477 -8.75815,0.13477l-18.97295,-0.02344c-0.16479,-1.74463 -0.05112,-4.77393 -0.11089,-6.66357c-0.23657,-7.47861 0.05464,-14.95474 0.0668,-22.45063z" fill="#fdfdfd"/><path d="M187.67139,125.69854c3.22266,-0.10767 6.91406,-0.02798 10.16895,-0.02856l17.77588,0.01626c0.11133,2.01885 0.04248,4.60283 0.04395,6.65435l0.00293,12.19131c0.00146,1.25068 0.08203,9.28696 -0.07471,10.0897c-1.34033,0.39697 -25.97314,0.34717 -27.81592,-0.00732c-0.28564,-0.60791 -0.18311,-26.2106 -0.10107,-28.91572z" fill="#fdfdfd"/><path d="M8.57002,32.91958c3.35298,-0.18838 10.61665,-0.25605 13.98022,-0.04819c0.01084,2.05444 -0.18208,5.32061 0.34058,7.1124l48.28828,0.00337c0.02681,1.66406 -0.06709,5.88867 0.1916,7.23384c2.89556,0.03867 5.79141,0.04893 8.68711,0.03105c1.30239,-0.00249 3.87993,-0.07529 5.09517,0.11045l0.0082,7.13818c8.47822,-0.06782 6.50801,-0.76099 6.74385,7.11431c1.67461,0.22148 4.74141,0.10269 6.53906,0.07837c-0.00308,-1.5082 -0.13154,-5.71436 0.26382,-6.8896c0.95933,-0.52236 18.39126,-0.30557 20.77397,-0.27012c0.01304,-2.3647 -0.01084,-4.84043 0.05303,-7.19561c3.75513,-0.1875 8.2355,-0.0813 12.03267,-0.07954l21.11895,0.03296l18.75146,0.02183c2.81836,0.00278 6.81445,-0.11089 9.56836,0.04556c0.03516,2.39063 0.10254,4.86094 0.05859,7.24438c1.17041,-0.19204 4.94678,-0.11704 6.35156,-0.11221c4.6875,0.01597 9.53027,-0.06855 14.19873,0.18457c0.10107,2.32383 0.07471,4.6938 0.07324,7.02349l-0.01758,0.11353l-13.79297,0.02168c-1.46777,0.00132 -5.64844,0.09683 -6.96094,-0.17329c-0.17139,-1.7124 -0.20361,-5.47705 -0.4248,-6.64263c-1.81934,-0.66973 -17.83594,-0.38774 -20.80811,-0.3873l-40.1688,-0.0019c0.00996,1.9875 0.11602,5.3436 -0.18867,7.17246l-20.5708,0.03149c0.24727,1.82915 0.13389,5.50298 -0.15908,7.30313l-13.41138,0.01729c-0.05464,9.32285 1.05586,6.56748 -6.93179,7.31938c-0.05068,2.15991 -0.01362,4.64868 -0.28198,6.75117c-2.33613,-0.00425 -4.61074,-0.06021 -6.93999,0.14546c0.17402,2.36104 0.2127,4.73013 0.11543,7.09556c-1.14712,0.00146 -2.94551,0.11821 -3.9709,0.04321l-3.00806,0.03384l-0.00234,7.29199l-6.86396,0.00454c-0.21899,2.19141 -0.14722,4.7688 -0.14971,7.00752c-2.34199,0.2855 -4.68267,0.01055 -6.85957,0.24287c0.45659,1.48081 0.41646,20.19346 -0.08657,20.74219c-1.14697,0.52295 -5.13135,0.32959 -6.69316,0.33003l0.00864,12.75088c0.00308,1.91294 0.23555,6.99888 -0.41147,8.47017c-0.71748,0.48047 -5.31958,0.28418 -6.50625,0.27832c-0.10957,6.03223 -0.01919,12.36621 -0.01992,18.42041l0.01201,31.07373c1.50425,0.01904 5.52349,-0.26514 6.65215,0.41748c0.50962,1.26416 0.27524,18.54199 0.26558,21.25488c1.65806,0.22705 4.90547,0.15967 6.73755,0.19629c-0.00088,2.23975 -0.05771,4.62598 0.09463,6.84814c2.10161,-0.0249 4.62788,0.01611 6.79131,0.01758c0.09141,3.12012 -0.0334,6.35889 0.01113,9.49072c0.023,1.60693 -0.07266,3.34131 0.1459,4.92773c1.66465,0.29443 5.01855,0.19629 6.86851,0.18896l0.00952,6.7793c8.29849,0.13184 7.04868,-1.4707 7.04751,7.31689c8.39473,-0.14355 7.00723,-1.01807 6.96548,7.19092c4.06714,-0.06152 8.16563,0.07324 12.23262,0.01904c2.82275,-0.03955 5.42271,0.22998 8.22393,0.4292c0.14341,2.11523 -0.02578,4.43994 0.10972,6.66211c2.64434,0.10547 6.13857,0.46436 8.73164,0.25928c4.09819,-0.3252 7.90825,-0.43359 12.03208,-0.33105l0.01875,7.16309l44.05708,-0.00146l10.82373,0.01611c1.64941,0.00293 5.25,0.10986 6.65771,-0.22559c0.03369,-2.45801 -0.12305,-4.26416 0.00586,-6.90674c2.08447,-0.1582 5.36426,-0.06299 7.51465,-0.06445l13.11768,-0.01465c-0.03809,-2.3335 -0.11279,-4.66553 0.17139,-6.98437l20.32324,-0.01172c-0.03223,-2.39062 0.02783,-4.78271 0.17871,-7.16895c1.93359,-0.05273 4.77832,-0.09229 6.66943,0.08643c0.29883,-1.875 0.21973,-5.35254 0.22559,-7.39453c2.16504,-0.15381 4.58936,-0.00293 6.98145,-0.17139c-0.80273,-2.38477 0.20654,-3.25049 -0.12012,-5.29687c-0.06445,-0.40137 -0.24609,-0.37793 -0.05273,-0.854c1.05176,-0.89795 4.74023,-0.36035 6.58447,-0.63867l0.20654,-0.03369c-0.00439,-2.02588 -0.24316,-12.87305 0.34277,-13.89551c1.30518,-0.31787 2.77734,-0.11133 4.06201,-0.25635c1.02979,-0.11719 1.56152,-0.271 2.65869,-0.33545l-0.00293,-6.72363c1.44141,-0.14062 6.3999,0.09814 7.02686,-0.43945c0.17285,-7.07812 -0.06738,-14.3877 0.06152,-21.50684l6.79688,-0.00293l0.00439,-49.58496c-2.2251,0.01465 -4.45166,0.00439 -6.67676,-0.0293c-0.16553,-1.01074 -0.1626,-2.03071 -0.1626,-3.05112c-0.00293,-4.69775 0.01465,-9.39609 0.01611,-14.09399c0,-1.42119 0.01025,-2.83989 -0.08203,-4.25801c-1.22607,0.01011 -5.9458,0.2458 -6.71338,-0.32607c-0.44385,-1.4562 -0.25488,-5.51733 -0.27979,-7.2123c-0.06592,-4.47612 0.11133,-9.07515 -0.04248,-13.55171c-8.16064,-0.34658 -7.00488,1.65615 -7.02539,-7.21069c-9.83643,-0.07471 -5.81396,0.77549 -7.02539,-7.12031l-0.03369,-0.20962l-6.49365,-0.00923c-0.1084,-2.41421 -0.12451,-4.83179 -0.04687,-7.24717c1.88672,-0.36489 4.96289,-0.25386 6.99756,-0.24932c0.07764,2.37305 0.11279,4.67065 -0.0249,7.04165c8.28076,0.26396 7.25244,-1.59346 6.98584,7.27236c2.35107,-0.0022 4.60254,-0.01582 6.95361,0.12598c0.05127,2.40879 0.16113,4.76294 0.16992,7.17773c5.46826,0.10635 10.98047,-0.04819 16.45313,0.01245c1.34033,0.01479 2.69092,-0.05947 4.021,0.10825c0.09082,-4.9021 0.03516,-9.5436 0.18457,-14.51016c2.1665,-0.11484 4.40918,-0.13813 6.58447,-0.18662c-0.12744,-1.83325 -0.04395,-4.51567 -0.04248,-6.42334l0.00732,-11.83945c0.00439,-7.6834 -0.25635,-16.48857 -0.02197,-24.01436c-1.77539,-0.23306 -4.36084,-0.16128 -6.19482,-0.15952l-9.19189,0.00791l-32.3584,-0.01831c-0.25488,-0.08481 -0.34424,-0.173 -0.57715,-0.32183c-0.08643,-2.32412 -0.04541,-4.65117 0.12451,-6.97075c2.50781,-0.40752 4.86475,-0.29355 7.39893,-0.2915l9.1333,0.01099l31.67578,0.00498c0.02637,-1.58101 -0.14502,-5.64287 0.34277,-6.80493c1.1748,-0.6709 11.896,-0.3186 14.01709,-0.28579c0.02344,2.07261 0.02197,13.16689 -0.36182,14.40308c-0.94629,0.47314 -5.3877,0.32959 -6.74561,0.33706c0.14355,1.16177 0.07178,3.42012 0.06885,4.64722l-0.01172,8.1082c-0.00146,9.92153 -0.1333,20.17119 0.03369,30.06855c-2.33936,-0.15601 -4.65234,-0.0438 -6.99756,0.00278c-0.09082,4.70068 0.11572,9.89048 -0.06885,14.49009c-2.25586,0.0356 -4.51318,0.03633 -6.76904,0.00234c0.18311,1.21992 0.12305,5.48569 0.1084,6.90073c-3.50098,0.24067 -10.17627,0.14429 -13.83252,0.07983c-0.25781,3.39053 -0.12891,10.11826 -0.06299,13.68589c2.16064,0.00366 4.7168,-0.05801 6.84521,0.03252c0.33105,2.60728 0.21387,5.89775 0.20801,8.57622l-0.00146,12.77271c1.99365,0.01904 5.09912,-0.06885 6.96094,0.17578c0.13477,10.31396 0.01318,20.85352 0.00439,31.18213l-0.00439,12.34131c0,2.14746 0.06445,4.75488 -0.03369,6.87451c-2.2998,0.01904 -4.59961,0.0249 -6.89941,0.01758c-0.11719,4.78271 0.01758,9.6167 -0.03223,14.39795c-0.01904,1.94531 0.1084,5.08301 -0.10547,6.94775c-2.24707,0.00586 -4.7959,-0.03076 -7.03271,0.09082c0.15234,2.96338 0.15088,11.64844 -0.22559,14.37891l-6.60498,0.19043c0.01758,2.35693 -0.03516,4.71387 -0.15674,7.06934c-2.30273,0.00879 -4.58203,0.00293 -6.8833,0.11719c-0.00146,1.72119 0.20215,5.18994 -0.36768,6.63281c-0.78223,0.55078 -5.03613,0.23291 -6.61523,0.38525c0.00732,2.3335 0.05566,4.81787 -0.03076,7.13672c-2.25293,0.03223 -4.86475,-0.01758 -7.07227,0.10693c0.29443,1.396 0.06445,5.54297 -0.16406,7.01953l-6.27979,0.2168c-0.01172,1.31689 0.08643,5.67627 -0.37354,6.57715c-1.24072,0.31494 -3.47461,0.22559 -4.83838,0.22412l-9.83789,-0.01904c-1.66113,-0.00146 -4.6582,-0.0835 -6.14209,0.20947c0.24463,1.72998 0.05566,5.17236 -0.01318,6.98584c-6.63281,0 -13.86621,-0.1377 -20.45068,0.03076c-0.01758,2.32324 0.02344,5.0083 -0.10693,7.29932l-41.35913,0.06152c-4.1064,0.00732 -8.21265,-0.01172 -12.31875,-0.05566c-2.48687,-0.00439 -5.36323,0.07178 -7.81963,-0.02051c-0.00132,-1.92627 0.08496,-5.46533 -0.12554,-7.32129c-6.66841,0.00439 -14.18247,0.16992 -20.79316,-0.01025c-0.27817,-2.33643 -0.0356,-4.64941 -0.30293,-6.95947c-6.85547,-0.26367 -13.69687,0.01758 -20.34639,-0.22119c-0.07544,-1.2832 -0.03091,-5.78906 -0.33325,-6.47314c-0.26836,-0.22266 -0.36094,-0.36328 -0.75542,-0.38232c-1.95879,-0.09668 -3.98701,0.05566 -5.9376,-0.2959c-0.13506,-1.90283 -0.10327,-4.9541 -0.05054,-6.9126c-2.11011,-0.03369 -4.62363,0.0835 -6.67192,-0.17871c-0.04863,-2.27783 -0.08862,-4.88379 -0.00322,-7.15723c-2.32485,0.01318 -4.99717,0.0498 -7.31367,-0.06885c-0.08613,-2.24707 -0.04878,-4.56738 -0.04028,-6.82324l-6.63706,-0.00732c-0.03574,-1.48682 0.15688,-5.84473 -0.24023,-6.89502c-1.10361,-0.98145 -6.38423,0.15967 -6.61362,-0.62256c-0.47139,-1.6084 -0.2395,-12.65039 -0.27202,-14.27197l-6.71895,-0.03809c-0.30132,-2.13428 -0.19072,-5.84912 -0.18955,-8.11084l0.01274,-13.229c-2.24443,-0.00146 -4.62788,0.03516 -6.85811,-0.06885c-0.18091,-2.74951 -0.10122,-6.01172 -0.10005,-8.79785l0.00234,-14.06543l0.05596,-18.03809c0.01465,-3.00586 -0.06489,-6.55078 0.07559,-9.4834c2.27344,0.00586 4.54673,-0.00586 6.81987,-0.03516l-0.01025,-12.40356c-0.00029,-3.05435 -0.10796,-6.04058 0.26836,-9.07046c2.17793,-0.00308 4.45063,-0.0397 6.62051,0.00264c0.0791,-4.11401 0.14399,-9.49644 0.00674,-13.5999c-3.3561,-0.37383 -10.13599,-0.05332 -13.74609,-0.12363c-0.15,-2.21646 -0.09976,-4.67124 -0.09683,-6.9123c-2.07026,-0.03325 -4.46792,-0.00615 -6.4938,-0.19644c-0.26221,-1.74976 -0.18062,-4.34985 -0.17725,-6.18398c0.00469,-2.6606 -0.03955,-5.49375 0.07764,-8.14233c-0.92622,0.00703 -6.53804,0.17007 -6.90132,-0.17476c-0.28462,-1.89302 -0.20493,-3.9334 -0.20522,-5.85894v-8.12461l0.00908,-28.58247c-1.39553,-0.20405 -6.09845,0.05581 -6.78393,-0.33105c-0.40068,-1.48052 -0.3058,-12.55239 -0.1709,-14.53535zM50.21631,97.33315l6.57612,0.01582c0.3145,-8.72021 -1.6062,-7.19707 7.52197,-7.32056c-0.69785,-1.74609 -0.45908,-4.80088 -0.41206,-6.75586c3.03179,-0.05376 5.74277,-0.10181 8.77822,-0.2896c-0.69214,-0.06738 -1.11021,-0.10811 -1.8019,-0.08408c-0.04512,-2.14951 -0.05186,-4.29961 -0.02051,-6.44941c-1.07974,-0.07471 -6.16963,0.01187 -6.78999,-0.61582c-1.02964,-1.04165 1.20439,-6.22412 -0.62505,-6.67002c-1.34399,-0.32769 -5.32837,0.51533 -6.11133,-0.37266c-0.71133,-0.80684 0.57964,-6.81694 -0.81768,-6.89121c-3.97617,-0.21108 -9.21211,-0.04761 -13.11577,-0.07617c-0.41938,-1.92949 -0.45894,-5.37202 -0.1292,-7.32012c3.0167,-0.00322 18.88315,-0.33062 20.72974,0.22134c0.78237,1.53472 -0.69932,6.66929 0.81709,6.94966c1.64736,0.30454 4.62671,0.12568 6.41206,0.14736c-0.00937,2.19873 0.03618,4.69043 -0.05625,6.86514l13.49517,-0.00073c-0.00864,-4.08809 -0.04951,-10.03652 0.19614,-14.03452c-4.40098,-0.02183 -9.69419,0.09448 -14.00332,-0.12378c-0.0145,-2.29395 -0.01421,-4.58789 0.00059,-6.88184l-33.65332,-0.0104l-8.56143,0.00088c-1.57456,0.00059 -4.44639,-0.09727 -5.91357,0.2228c-0.31538,0.89678 0.1415,5.8021 0.12773,7.2501l-0.00601,25.80718c0.00117,1.46235 0.02388,2.85513 -0.01143,4.3207c-0.03091,1.28921 -0.33516,3.13154 -0.17607,4.31016c1.15151,1.31587 5.31841,-0.1563 6.63369,0.76201c0.58945,1.47979 0.31567,12.14824 0.30161,14.37378l13.65835,-0.06167c1.2917,-0.0019 5.59497,-0.07529 6.5502,0.16245c0.62402,-0.63486 0.37368,-6.07061 0.4062,-7.45093zM15.99023,47.31738l6.49819,0.01289c0.11719,-2.18672 0.06885,-4.6998 0.04028,-6.9104c-2.02544,0.01509 -4.56665,-0.15894 -6.40942,-0.10166c-0.3145,0.89282 -0.11572,5.7728 -0.12905,6.99917zM284.4873,40.49839c-1.26562,-0.05581 -2.47412,-0.02432 -3.73535,0.00044l-2.89893,0.07427c0.00586,2.12813 -0.05127,4.62246 0.03809,6.72026l3.76172,0.02534l2.84912,0.00762z" fill="#fdfdfd"/><path d="M229.2085,47.27959c0.23291,0.14883 0.32227,0.23701 0.57715,0.32183c-0.31787,0.20581 -0.42334,0.17095 -0.45117,0.54199c-0.16406,2.15815 0.09082,4.66348 -0.09961,6.78516c-3.48193,0.09668 -10.32861,0.13242 -13.56006,-0.35845l-0.01025,14.13486l13.54541,-0.00293c-0.00146,-1.43584 -0.26074,-5.59834 0.34424,-6.53115c0.88184,-0.6791 4.91602,-0.46187 6.38525,-0.51592c0.01465,-2.10161 -0.06006,-5.10249 0.06592,-7.15283c6.96094,-0.0019 14.17383,-0.09932 21.11279,0.01201c0.12451,1.92612 0.22119,5.4167 -0.08057,7.30181c-2.21777,0.00059 -12.20654,-0.19482 -13.49561,0.30967c-0.52148,0.75029 -0.08203,5.24604 -0.41162,7.01777l-6.80273,0.01567c0.00879,2.05444 0.12451,5.25776 -0.26074,7.16206c-1.93652,-0.00439 -5.00684,-0.09653 -6.80273,0.19292c-0.00586,2.19697 -0.1582,4.57705 -0.13477,6.69009c-1.72998,0.02227 -4.38867,0.13887 -6.03223,-0.16714l1.01074,-0.0126c-0.71484,-0.10562 -1.02979,-0.14209 -1.74902,-0.13843c-0.01318,-2.1542 -0.17432,-4.49253 -0.15234,-6.56177c-2.04639,-0.01333 -4.66992,-0.02769 -6.70312,-0.23408c-0.11865,-2.40703 -0.18457,-4.52637 -0.17432,-6.93384c-2.16797,-0.00234 -12.14795,0.14092 -13.63623,-0.21548l-0.02197,-7.12822l0.01758,-0.11353c2.22803,0.05581 4.44141,0.17183 6.65625,-0.06665c-0.05273,-2.43135 -0.09521,-4.40405 0.1626,-6.82881c1.83398,-0.30015 4.76367,-0.2521 6.66797,-0.26484c0.26367,-1.40786 0.16553,-5.74219 0.16406,-7.33242c4.47803,0.17388 9.43652,-0.1853 13.86914,0.07324z" fill="url(#color-1)"/></g></svg></svg>