<?xml version="1.0" standalone="no"?>
<!DOCTYPE svg PUBLIC "-//W3C//DTD SVG 20010904//EN"
 "http://www.w3.org/TR/2001/REC-SVG-20010904/DTD/svg10.dtd">
<svg version="1.0" xmlns="http://www.w3.org/2000/svg"
 width="1024.000000pt" height="1024.000000pt" viewBox="0 0 1024.000000 1024.000000"
 preserveAspectRatio="xMidYMid meet">
<metadata>
Created by potrace 1.16, written by Peter Selinger 2001-2019
</metadata>
<g transform="translate(0.000000,1024.000000) scale(0.100000,-0.100000)"
fill="#FFFFFF" stroke="none">
<path d="M2068 9508 l-3 -173 -213 0 -212 0 0 -1512 0 -1513 207 0 206 0 -6
-172 c-4 -95 -7 -312 -7 -481 l0 -308 -200 3 -200 3 0 -362 0 -363 -182 -2
-183 -3 -1 -1075 c0 -591 1 -1152 3 -1247 l4 -171 190 1 191 2 -9 115 c-4 63
-8 545 -8 1070 l0 955 157 0 c87 0 158 -4 158 -8 0 -5 5 -5 10 -2 6 4 10 73
10 174 0 92 3 243 7 334 l6 167 43 0 c72 0 69 -7 66 172 -2 88 1 165 5 169 5
5 88 9 186 9 l177 2 0 164 0 164 -35 0 -35 0 0 350 0 350 -40 0 -40 0 0 165 0
165 -170 0 -170 0 2 1161 3 1161 162 -1 163 -2 2 168 3 168 258 3 257 2 0
-170 0 -170 197 5 c155 5 198 3 204 -7 5 -7 9 -82 9 -165 l0 -152 158 -3 157
-3 0 -158 0 -157 190 2 190 3 3 339 2 338 -187 -3 -188 -4 4 25 c2 14 0 88 -4
165 l-7 140 -194 -2 -194 -2 0 174 0 175 -550 0 -550 0 -2 -172z"/>
<path d="M7058 9508 l-3 -173 -182 -3 -183 -2 -2 -162 -3 -161 -188 2 c-104 0
-191 3 -195 5 -4 2 -6 -148 -4 -335 l3 -339 -191 0 -190 0 0 -655 0 -655 -800
0 -800 0 0 655 0 655 -185 0 -185 0 0 -834 c0 -726 2 -835 15 -846 8 -7 15 -9
15 -4 0 5 498 7 1150 4 1145 -5 1151 -5 1155 15 2 11 4 29 4 40 0 11 0 379 0
818 l1 797 197 0 198 0 0 157 0 158 173 0 c108 0 172 4 172 10 1 6 1 81 0 167
l-1 157 186 -6 185 -5 0 171 0 171 260 0 260 0 0 -165 0 -165 38 -1 c20 0 91
-1 157 -2 l120 -2 2 -1154 c2 -909 0 -1157 -10 -1163 -6 -4 -81 -8 -166 -8
l-153 0 5 -132 c3 -73 3 -148 0 -165 -5 -31 -8 -33 -44 -33 l-39 0 -2 -347 -3
-348 -35 0 -35 0 0 176 0 177 -163 -2 -162 -1 0 168 0 167 -187 0 c-104 0
-198 -3 -211 -6 -22 -6 -22 -7 -20 -171 l3 -164 208 0 207 0 0 -173 0 -173
157 -2 c87 -1 159 -4 162 -6 2 -2 5 -71 6 -152 2 -81 4 -154 4 -161 1 -10 40
-13 179 -12 l177 2 0 -179 0 -178 63 1 62 1 0 -324 c0 -299 1 -324 17 -330 10
-4 88 -7 173 -8 l155 0 3 -835 c3 -759 -5 -1185 -25 -1282 l-5 -28 -163 0
c-89 0 -190 -3 -224 -6 l-61 -7 0 -178 0 -179 -340 0 -340 0 0 -159 c0 -136
-2 -160 -16 -165 -9 -3 -117 -6 -240 -6 l-224 0 0 -175 0 -175 -1837 2 -1836
3 2 173 2 172 -238 0 -239 0 4 165 4 165 -341 0 -342 0 3 183 3 183 -45 -7
c-25 -4 -49 -3 -55 2 -5 5 -89 9 -187 9 l-178 0 0 -177 0 -178 190 3 190 3 2
-238 3 -238 370 1 c259 1 372 -2 377 -10 4 -6 8 -62 8 -124 l0 -113 228 3 227
3 3 -172 2 -173 1850 0 1850 0 0 173 0 172 227 0 228 0 3 120 3 120 277 -3
c343 -4 459 3 459 26 0 9 1 115 2 235 l1 217 195 0 195 0 0 175 0 175 178 2
c97 0 184 1 192 2 13 1 15 146 15 1246 l0 1245 -25 2 c-14 0 -94 1 -177 2
l-153 1 -2 358 -3 357 -202 3 -203 2 0 480 0 480 205 0 205 0 0 1510 0 1510
-187 1 c-230 1 -228 1 -229 17 -1 6 -2 84 -3 172 l-1 160 -555 0 -555 0 -2
-172z"/>
<path d="M3576 6653 c-1 -2 -70 -3 -152 -4 -83 0 -156 -4 -164 -9 -12 -7 -15
-39 -16 -154 -1 -108 -4 -150 -15 -162 -12 -14 -35 -16 -179 -13 -91 1 -183 2
-205 1 l-40 -2 0 -167 0 -166 -80 -1 c-44 -1 -120 -3 -170 -4 l-90 -2 3 -175
3 -176 182 1 c150 1 179 4 164 14 -15 12 -17 33 -17 175 l0 161 213 0 212 0 0
172 0 173 355 -4 c195 -2 357 -5 360 -6 3 -2 4 76 2 173 l-3 177 -180 0 c-99
0 -182 -1 -183 -2z"/>
<path d="M6390 6653 l-95 -4 3 -169 3 -170 207 -1 c114 -1 210 -1 213 -1 4 1
65 2 137 3 l131 1 -1 32 c0 17 1 36 2 41 1 6 2 68 1 139 l-1 128 -165 -3 c-91
-2 -165 -1 -165 4 0 7 -61 7 -270 0z"/>
<path d="M3408 5077 c-2 -18 -11 -23 -43 -25 -40 -3 -41 -3 -37 -39 l4 -35
-38 3 -39 4 2 -140 2 -140 345 -5 345 -5 3 143 3 142 -25 2 c-14 1 -38 2 -55
2 -28 1 -29 3 -27 41 l3 40 -45 -3 c-41 -4 -46 -2 -46 17 0 21 -3 22 -174 21
-171 -2 -175 -2 -178 -23z"/>
<path d="M6478 5078 c-3 -20 -8 -23 -39 -20 -33 3 -37 0 -44 -25 -5 -15 -7
-34 -6 -42 2 -10 -10 -12 -48 -10 l-50 4 -3 -139 c-2 -76 -1 -141 2 -145 3 -3
160 -6 350 -6 l345 0 0 145 0 145 -36 -3 c-34 -4 -38 -2 -44 27 -3 17 -4 34
-2 38 3 5 -12 7 -34 5 -36 -4 -39 -2 -39 22 l0 26 -174 0 c-173 0 -175 0 -178
-22z"/>
<path d="M3460 4042 c0 -5 -120 -9 -267 -10 -147 -2 -268 -4 -270 -5 -1 -2 -4
-14 -6 -28 -3 -20 -10 -24 -45 -27 -30 -2 -43 -8 -47 -23 -5 -15 -16 -19 -51
-19 -33 0 -44 -4 -44 -16 0 -8 -5 -24 -10 -34 -8 -16 -15 -18 -35 -10 -23 9
-25 7 -25 -23 0 -37 -15 -57 -43 -57 -16 0 -18 -6 -15 -29 4 -27 1 -31 -31
-38 -28 -7 -36 -14 -35 -31 0 -20 -20 -35 -42 -31 -45 8 -44 12 -44 -230 l0
-228 61 -7 c81 -8 239 -7 263 3 17 7 19 18 17 164 l-2 157 50 0 51 0 0 35 0
35 70 0 70 0 0 38 0 37 168 1 168 1 2 -30 c4 -43 11 -50 49 -44 48 8 63 0 63
-35 0 -29 0 -29 53 -27 l52 3 3 -172 2 -171 178 -3 177 -3 -3 245 -3 245 -39
-3 c-38 -4 -46 2 -41 30 1 10 -36 29 -51 26 -9 -2 -13 9 -13 32 0 30 -3 35
-22 34 -19 0 -23 5 -24 30 0 31 -17 82 -18 58 -1 -8 -10 -12 -23 -10 -18 2
-24 11 -26 34 -4 38 -18 44 -114 44 l-68 0 0 38 c0 26 -6 41 -20 50 -11 7 -20
8 -20 4z"/>
<path d="M6998 4033 l-258 -3 0 -39 0 -38 -89 -7 -90 -7 -3 -32 c-3 -28 -7
-33 -38 -37 -32 -5 -35 -8 -35 -40 0 -28 -4 -36 -21 -38 -22 -3 -41 -52 -21
-52 20 0 -3 -13 -26 -15 -13 -1 -27 -12 -35 -28 -10 -22 -20 -27 -48 -27 -30
0 -34 -3 -34 -27 0 -16 -1 -125 -3 -243 l-2 -215 173 3 172 3 2 132 c2 125 3
159 8 182 1 6 2 13 1 18 0 4 21 7 49 7 46 0 50 2 56 28 4 15 8 30 10 33 1 3
28 2 58 -1 54 -6 55 -5 50 16 -3 13 -3 31 0 41 5 17 20 18 166 18 l160 0 0
-37 0 -38 68 0 c65 0 67 -1 68 -26 2 -34 5 -35 56 -38 l43 -2 3 -161 2 -160
65 -7 c36 -4 113 -4 171 0 l105 7 -1 136 c0 75 2 178 5 229 6 91 5 92 -17 92
-49 0 -65 10 -60 36 4 25 2 26 -48 28 -22 1 -25 5 -23 39 1 35 0 37 -29 37
-25 0 -29 4 -27 23 5 31 -8 47 -36 47 -18 0 -24 6 -27 28 -3 25 -7 27 -49 30
-37 2 -48 7 -52 23 -4 15 -14 19 -46 19 -39 0 -41 2 -41 29 0 31 -16 43 -53
39 -12 -2 -138 -4 -279 -5z"/>
<path d="M4960 3117 c-3 -4 -59 -7 -123 -8 l-117 -1 0 -174 0 -174 115 0 115
0 0 -166 0 -166 -39 5 c-44 5 -56 0 -57 -25 0 -10 -1 -32 -2 -48 l-2 -31 -147
3 -146 3 -1 45 -1 45 -48 3 -48 3 3 159 3 159 -158 3 -157 3 0 -222 0 -223 30
0 30 0 0 -74 0 -75 38 -3 c32 -3 37 -7 40 -30 3 -25 8 -28 38 -28 31 0 35 -3
34 -22 -5 -53 -2 -57 35 -51 34 5 35 5 35 -26 l0 -31 224 0 225 0 3 28 c2 22
8 28 36 30 28 3 32 7 32 32 0 28 15 40 50 40 14 0 18 7 17 28 -2 24 1 27 36
30 35 3 37 5 37 38 0 30 3 34 25 34 18 0 26 -7 31 -24 3 -14 3 -29 0 -35 -4
-6 9 -11 31 -13 33 -3 38 -7 41 -30 3 -26 13 -33 37 -28 14 2 35 -31 35 -56 0
-19 5 -22 28 -21 23 2 27 -2 30 -28 l3 -30 222 2 c122 2 225 3 229 3 5 0 7 3
7 8 -1 4 -1 18 0 31 1 21 4 23 36 17 l35 -7 0 42 0 41 38 -3 c37 -4 37 -4 34
28 -4 33 -4 33 37 33 l41 0 0 75 c0 79 1 81 52 76 16 -2 18 17 20 218 l3 221
-162 0 -162 0 2 -160 2 -159 -45 -3 -45 -3 -3 -48 -3 -48 -132 2 c-72 0 -137
3 -144 6 -8 3 -13 22 -13 50 l0 45 -47 -3 -48 -3 -3 167 -2 167 110 0 110 0 0
173 c0 171 0 172 -22 174 -74 6 -534 14 -538 10z"/>
</g>
</svg>
